<?xml version="1.0" encoding="utf-8"?>
<!-- Generator: Adobe Illustrator 26.1.0, SVG Export Plug-In . SVG Version: 6.00 Build 0)  -->
<svg version="1.1" id="Layer_1" xmlns="http://www.w3.org/2000/svg" xmlns:xlink="http://www.w3.org/1999/xlink" x="0px" y="0px"
	 viewBox="0 0 466.7 466.7" style="enable-background:new 0 0 466.7 466.7;" xml:space="preserve">
<style type="text/css">
	.st0{fill-rule:evenodd;clip-rule:evenodd;}
</style>
<g>
	<path class="st0" d="M233.3,93.3c38.7,0,70,31.3,70,70s-31.3,70-70,70s-70-31.3-70-70S194.7,93.3,233.3,93.3z M256.7,163.3
		c0-12.9-10.4-23.3-23.3-23.3S210,150.4,210,163.3s10.4,23.3,23.3,23.3S256.7,176.2,256.7,163.3z"/>
	<path class="st0" d="M233.3,0c128.9,0,233.3,104.5,233.3,233.3S362.2,466.7,233.3,466.7S0,362.2,0,233.3S104.5,0,233.3,0L233.3,0z
		 M420,233.3c0-103.1-83.6-186.7-186.7-186.7S46.7,130.2,46.7,233.3c0,38.8,11.9,74.9,32.2,104.8c18.7-47.7,65.2-81.5,119.5-81.5h70
		c54.3,0,100.8,33.8,119.5,81.5C408.1,308.2,420,272.2,420,233.3L420,233.3z M349.8,379.2c-3-42.4-38.3-75.9-81.5-75.9h-70
		c-43.2,0-78.5,33.5-81.5,75.9c31.9,25.5,72.4,40.8,116.5,40.8S317.9,404.7,349.8,379.2L349.8,379.2z"/>
</g>
</svg>
